<?xml version="1.0" encoding="iso-8859-1"?>
<!-- Generator: Adobe Illustrator 19.0.0, SVG Export Plug-In . SVG Version: 6.00 Build 0)  -->
<svg version="1.1" id="Capa_1" xmlns="http://www.w3.org/2000/svg" xmlns:xlink="http://www.w3.org/1999/xlink" x="0px" y="0px"
	 viewBox="0 0 512.002 512.002" style="enable-background:new 0 0 512.002 512.002;" xml:space="preserve">
<linearGradient id="SVGID_1_" gradientUnits="userSpaceOnUse" x1="0" y1="258.001" x2="512.002" y2="258.001" gradientTransform="matrix(1 0 0 -1 0 514.002)">
	<stop  offset="0" style="stop-color:#80D8FF"/>
	<stop  offset="1" style="stop-color:#EA80FC"/>
</linearGradient>
<path style="fill:url(#SVGID_1_);" d="M256,512.001c-5.868,0-11.439-2.576-15.239-7.048l-49.42-58.144l-76.242,19.496
	c-5.8,1.483-11.961,0.29-16.788-3.254c-4.827-3.543-7.813-9.062-8.137-15.041l-3.995-73.699l-73.022-26.59
	c-5.806-2.114-10.309-6.794-12.199-12.677s-0.954-12.309,2.535-17.409l42.166-61.634L3.493,194.366
	c-3.489-5.101-4.425-11.526-2.535-17.409s6.393-10.563,12.199-12.677l73.022-26.59l3.995-73.699
	c0.324-5.979,3.31-11.498,8.137-15.041c4.826-3.543,10.988-4.735,16.788-3.254l76.242,19.496l49.42-58.144
	c3.8-4.471,9.372-7.047,15.239-7.047c5.867,0,11.439,2.576,15.239,7.048l49.42,58.144l76.242-19.496
	c5.799-1.483,11.961-0.29,16.788,3.254c4.827,3.543,7.813,9.062,8.137,15.041l3.995,73.699l73.022,26.59
	c5.806,2.114,10.309,6.794,12.199,12.677s0.954,12.309-2.535,17.409l-42.165,61.634l42.166,61.635
	c3.489,5.101,4.425,11.526,2.535,17.409c-1.89,5.883-6.393,10.563-12.199,12.677l-73.022,26.59l-3.995,73.699
	c-0.324,5.979-3.31,11.498-8.137,15.041s-10.988,4.736-16.788,3.254L320.66,446.81l-49.42,58.144
	C267.439,509.425,261.868,512.001,256,512.001z M198.489,404.337c5.786,0,11.387,2.516,15.24,7.049L256,461.119l42.271-49.733
	c4.951-5.825,12.787-8.318,20.194-6.425l64.739,16.555l3.391-62.559c0.434-8,5.6-14.97,13.127-17.711l61.221-22.293l-35.341-51.659
	c-4.658-6.809-4.658-15.777,0-22.586l35.341-51.659l-61.221-22.293c-7.528-2.741-12.694-9.711-13.127-17.711l-3.391-62.559
	l-64.739,16.555c-7.405,1.894-15.243-0.6-20.194-6.425L256,50.883l-42.271,49.733c-4.951,5.825-12.79,8.316-20.194,6.425
	l-64.739-16.555l-3.391,62.559c-0.434,8-5.6,14.97-13.127,17.711l-61.221,22.293l35.341,51.659c4.658,6.809,4.658,15.777,0,22.586
	l-35.341,51.659l61.221,22.293c7.528,2.741,12.694,9.711,13.127,17.711l3.391,62.559l64.739-16.555
	C195.177,404.541,196.841,404.337,198.489,404.337z M256,376.001c-66.168,0-120-53.832-120-120s53.832-120,120-120
	s120,53.832,120,120S322.169,376.001,256,376.001z M256,176.001c-44.112,0-80,35.888-80,80s35.888,80,80,80s80-35.888,80-80
	S300.113,176.001,256,176.001z"/>
<g>
</g>
<g>
</g>
<g>
</g>
<g>
</g>
<g>
</g>
<g>
</g>
<g>
</g>
<g>
</g>
<g>
</g>
<g>
</g>
<g>
</g>
<g>
</g>
<g>
</g>
<g>
</g>
<g>
</g>
</svg>
