<?xml version="1.0" encoding="UTF-8"?>
<svg width="138px" height="42px" viewBox="0 0 138 42" version="1.1" xmlns="http://www.w3.org/2000/svg" xmlns:xlink="http://www.w3.org/1999/xlink">
    <!-- Generator: Sketch 63.1 (92452) - https://sketch.com -->
    <title>logo</title>
    <desc>Created with Sketch.</desc>
    <g id="logo" stroke="none" stroke-width="1" fill="none" fill-rule="evenodd">
        <path d="M7.17439698,15.9542099 C7.41825558,15.9542099 9.50153898,16.1812348 9.59021483,18.1255676 C9.61777625,18.7316763 9.58122742,22.0939843 9.57583497,22.5565409 C9.79932208,23.310455 9.53748865,24.1260433 8.88200633,24.6609076 C8.80351621,25.972548 8.74360009,27.0778988 8.74360009,27.3836115 C8.74360009,36.2742685 9.63155695,45.2494616 10.5374887,54.0981163 C10.7981238,54.4378562 10.9503107,54.8488404 10.9503107,55.2906617 C10.9503107,56.8155035 9.89878284,57.5300737 9.56025677,57.692766 C9.13664982,57.8963972 8.70525378,57.9692366 8.28284515,57.9516914 C7.78254557,57.9304244 6.09171274,57.6901076 5.89099374,55.7282296 C4.92993922,46.3494957 3.9503107,36.8192346 3.9503107,27.3836115 C3.9503107,26.3558851 4.14204228,19.0554659 4.71903449,17.6045268 C5.28104767,16.1934634 6.50573311,15.9542099 7.17439698,15.9542099 Z M35.9820162,27.8900311 C36.8715944,28.2585304 37.5816057,29.044128 37.986147,30.1555004 C38.5537432,31.7165486 38.4474479,34.0562517 38.1502339,35.1323762 C37.5568378,37.2819551 36.4273213,39.3049625 35.5361952,41.3370489 C36.2967742,41.2136817 36.9175181,40.7784254 37.4515745,40.1909628 C38.1657138,39.4064333 38.747242,38.3922593 39.2792344,37.3332246 C40.2276362,35.4453336 41.010919,33.4143153 41.8483815,31.9013322 C42.6404362,30.4700598 43.5491062,29.4430685 44.5083439,28.9463956 C44.794722,28.7984619 45.1110279,28.7210236 45.4314618,28.7210236 L45.9066946,28.7210236 C46.2271285,28.7210236 46.5429184,28.7984619 46.8298125,28.9463956 C49.6466379,30.4043709 50.391737,33.7764059 49.7493212,36.8782081 C49.3050481,39.0219124 48.2054594,40.9194164 47.1151586,41.7835204 C46.2271285,42.4874073 45.2766628,42.6935533 44.3974046,42.5039631 C43.6698494,42.3474844 42.824131,41.8711057 42.1590114,40.7394392 C40.2183482,44.0030607 37.5718017,46.3101864 33.6228798,45.4925453 C33.253627,45.4160925 32.9084204,45.3114001 32.5864561,45.1806336 C32.7975949,45.9212276 32.6205508,46.7557688 32.0569142,47.3401949 C29.9232865,49.5519749 28.0128657,49.8647464 26.5156939,49.4307965 C25.3828129,49.1021954 24.348901,48.2419374 23.5202974,46.9788429 C23.3723701,47.542159 23.2049648,48.0798203 23.0154494,48.5792721 C22.1278855,50.9171432 20.7149428,52.4859132 18.959293,52.9411512 C17.5916234,53.2954072 16.349771,52.7086196 15.5411719,51.1720547 C14.8152225,49.7921485 14.5262115,47.1786236 14.4398767,46.7010058 C13.5791608,41.9428403 13.6765507,32.1988902 13.6765507,32.1988902 C13.6886586,31.1486768 14.4198723,30.2562138 15.4174604,30.074446 C16.4150485,29.8921325 17.3963172,30.4723699 17.753238,31.4554439 C17.753238,31.4554439 17.9859208,32.1110086 18.0675177,32.4488891 C18.7234516,35.1688545 18.547097,38.3751714 19.2862071,41.0127136 C19.5678481,42.0170757 19.1203811,43.0634682 18.2670353,43.5416319 C18.3512644,44.4040733 18.454445,45.2059254 18.5792093,45.8964244 C18.6076366,46.053083 18.7524054,46.7550448 18.8992798,47.4597358 C19.1582842,46.8964197 19.3635926,46.2397634 19.5404736,45.5383474 C20.4169825,42.066748 20.5070023,37.6158955 20.7202071,35.7392667 C20.8049626,34.9930911 20.96026,33.4985567 20.96026,33.4985567 C21.0802864,32.3446319 22.0494472,31.4898324 23.1670618,31.5520592 C24.2841499,31.6148318 25.1596058,32.5722509 25.1596058,33.7327259 L25.1596058,36.4969051 L25.1596058,36.4969051 C25.1596058,38.3462414 25.590227,41.6606363 26.6451961,43.8806041 C26.9384186,44.4979593 27.1774186,45.088022 27.6496279,45.2250301 C27.77176,45.2605103 27.8944186,45.1791788 28.0470838,45.0962098 C28.3713657,44.9193547 28.7093349,44.6355132 29.07889,44.2523273 C29.4702405,43.846542 29.9778811,43.6340056 30.491049,43.6147183 C29.9907612,42.9934463 29.6186301,42.2481367 29.361264,41.4128849 C28.6244209,39.0219124 28.9763306,35.7326562 29.9046084,33.0511567 C30.6992432,30.7568484 31.9484709,28.9469297 33.0604436,28.2275551 C34.053737,27.5845506 35.0563184,27.5071124 35.9820162,27.8900311 Z M86.0558146,2.45548195 C87.1520706,2.43661511 88.0597665,3.34117537 88.0938678,4.48628787 C88.0938678,4.48628787 88.1079095,4.97839801 88.1154319,5.61462985 C88.1189423,5.70424735 88.1239572,5.78809998 88.1294736,5.8598988 C88.1415093,6.00873722 88.1385004,6.15443116 88.1209483,6.29645656 C88.1224527,6.84411906 88.1154319,7.40855209 88.0908589,7.81942998 C87.9231559,10.6280628 87.2673915,15.0125458 87.2631501,19.0438056 C87.581364,19.540417 87.6780205,20.1674325 87.4743452,20.7667875 C87.4287296,20.9009564 87.3804103,21.040006 87.329423,21.1835333 C87.3936753,22.1891019 87.5218429,23.1333878 87.7558639,23.9668265 C88.0718023,23.2346882 88.300983,22.5512892 88.4012809,22.3060203 C88.574266,21.8844146 88.8641629,21.5524446 89.2145219,21.3336943 C89.1774125,20.9672228 89.1743174,20.5834203 89.2056886,20.185512 C89.4045306,17.6716226 91.2071556,14.3574193 92.2619052,12.5464938 C92.8062416,11.6117185 93.529066,10.9485551 93.9987714,10.7113653 C94.4742177,10.4714863 94.9204378,10.4225423 95.2977678,10.4628807 C96.0659971,10.5440954 97.6786524,11.1212035 97.3201106,13.7098534 C97.263224,14.1191538 97.0487252,15.1701037 97.0012328,15.3126327 C96.4668124,16.9299338 95.0263825,16.7992374 94.7664788,16.7664288 C94.7591723,16.7653531 94.7445592,16.7632017 94.7242053,16.7599747 C94.2325803,17.7065826 93.7592217,18.7602217 93.5066245,19.7514708 C93.4163367,20.1053731 93.3542312,20.446367 93.3589283,20.7604687 C93.3604939,20.8588945 93.3135234,20.9626986 93.380326,21.0234751 C93.4935771,21.1262036 93.6704995,21.1504067 93.8886516,21.1848288 C95.1829509,21.3902857 96.3525174,20.9702285 97.4651974,20.2780214 C98.867529,19.4050983 100.172788,18.1153451 101.461869,16.762126 C104.583844,13.4834205 107.676593,9.96860081 111.087176,9.08976143 C111.481729,8.98810865 112.748368,8.81061967 113.523382,10.2606509 C113.717527,10.6242344 114.124605,11.776837 114.793674,12.9052367 C115.193967,13.5802327 115.642797,14.3579571 116.371884,14.525227 C118.490255,15.0103636 122.462919,14.365487 125.3109,12.8197193 C126.752374,12.0376921 128.009097,11.1002275 128.009097,9.69107259 C128.009097,8.50404779 128.944332,7.53969099 130.096676,7.53969099 C131.248498,7.53969099 132.184256,8.50404779 132.184256,9.69107259 C132.184256,12.5857565 130.216712,15.0200448 127.256002,16.626589 C123.507753,18.6607203 118.254359,19.3636842 115.465874,18.7252618 C113.977952,18.3842678 112.71862,17.3161068 111.775034,15.9881665 C111.330379,15.3631902 110.912863,14.5946091 110.582504,13.9239159 C109.62013,14.5042511 108.701073,15.3481305 107.773144,16.2673083 C106.069679,17.955605 104.393874,19.9338004 102.637698,21.5817587 C99.8137244,24.231723 96.7439386,25.9904774 93.2540274,25.4381102 C92.6558861,25.3431855 92.141853,25.1836093 91.6998827,24.9749767 C91.4482182,25.6180511 91.1055624,26.4334654 90.7141503,27.1228299 C90.2888872,27.8706905 89.7873977,28.4864833 89.29995,28.8538626 C88.562259,29.4088623 87.7799354,29.5645137 87.015164,29.3831824 C86.4078602,29.2390607 85.7148018,28.8585794 85.112513,27.9141891 C84.952263,27.6629865 84.8037467,27.3962697 84.6664476,27.1154469 C83.4404078,29.3489044 81.9100764,31.5788523 80.1316436,33.1834986 C77.1956012,35.833062 73.6542855,36.9445961 69.6821149,34.793289 C68.7607084,34.2945237 68.0926238,33.5214375 67.6425621,32.5753103 C66.6780701,34.8859169 65.5448699,37.3196879 64.3742942,39.0292314 C63.5141418,40.2853056 62.5870251,41.1968247 61.7190861,41.6635265 C60.7348682,42.1923195 59.7506503,42.2844384 58.7955022,41.9724556 C56.8924733,41.3505258 55.5838164,39.5422471 55.0076129,36.9736059 C54.0612895,32.7580213 54.9858106,22.6824534 54.9858106,20.54387 L54.9858106,17.5451709 L54.9858106,17.5451709 C54.9858106,16.814836 54.7662304,15.3119238 54.8259271,14.5230603 C54.8757609,13.8644866 55.0927457,13.3840433 55.2926001,13.1010703 C55.6990571,12.5259634 56.2394426,12.247062 56.840563,12.1717382 C57.3077551,12.1132097 57.9893363,12.1422195 58.7238661,12.7804355 C59.5347038,13.4853232 59.1386288,21.9195461 59.1386288,24.1064792 C59.1386288,25.8450325 58.4451081,30.6316525 58.8162663,34.4818152 C58.9190485,35.5465264 59.0965815,36.5292976 59.4459373,37.2988212 C59.5648117,37.5609275 59.6810906,37.8062385 59.8601809,37.9645202 C60.0771657,37.765523 60.4794699,37.3792344 60.7276008,37.0407865 C61.6412208,35.7938733 62.5195418,34.0161313 63.3148065,32.2078526 C64.9151988,28.5699196 66.1999769,24.8108579 66.6515959,24.0932466 C67.2859389,23.0845193 68.1601071,23.0081777 68.5348989,23.0081777 C69.4116627,23.0081777 69.9956527,23.3832695 70.4067817,23.9543049 C70.5713371,24.1828208 70.707861,24.4632491 70.7862455,24.7966075 C70.8558052,25.0923041 70.8438658,25.8653903 70.8407512,26.0150199 C70.9580683,26.925012 70.9092727,28.2955987 71.0816147,29.5903527 C71.1319676,29.9700251 71.2025655,30.3420633 71.3266309,30.6764396 C71.4086491,30.8978303 71.4865144,31.119221 71.6900025,31.229153 C73.8411623,32.3941262 75.7291373,31.6230757 77.3196666,30.1878532 C80.1881095,27.5994651 82.2313217,23.0739639 83.270523,20.2283801 C83.2623269,20.0307429 83.2577413,19.8303985 83.254996,19.629025 C83.1963217,15.3441555 83.9069323,10.5687481 84.086967,7.55791459 C84.1155519,7.08309906 84.1155519,6.37716472 84.1080296,5.77604616 C84.085964,5.22104656 84.0829551,4.55599037 84.0829551,4.55599037 C84.0804476,3.41035379 84.9590572,2.47487287 86.0558146,2.45548195 Z M45.6677882,33.5932244 C45.5909047,33.7294089 45.5129892,33.8752064 45.4304298,34.0247423 C44.9995726,34.8033972 44.5852274,35.7235772 44.1538542,36.6902201 C44.5480756,36.8194619 44.9015333,37.0699345 45.1600476,37.4144012 C45.3870861,36.9689978 45.6182525,36.4402815 45.7126799,35.9825948 C45.8648989,35.2482666 45.9123706,34.4696117 45.7291918,33.7876211 C45.7116479,33.721398 45.691524,33.6562431 45.6677882,33.5932244 Z M34.2658116,33.4378138 C34.0816008,33.7828146 33.9102899,34.1475754 33.7905787,34.4925761 C33.5862441,35.082709 33.4128692,35.7144982 33.2879981,36.3548324 C33.6393917,35.571371 33.9556976,34.7761603 34.1811882,33.9590533 C34.2188559,33.8212667 34.2477517,33.6418235 34.2658116,33.4378138 Z M116.61426,0.37742771 C116.733562,0.37742771 117.216264,0.501995282 117.428323,0.558770978 C117.543659,0.53038313 117.664486,0.529959431 117.78623,0.561313173 C118.332091,0.702405015 118.692744,1.43201508 118.591139,2.19001299 C118.529505,2.65015035 118.34094,3.08020507 117.903396,3.29078358 C117.78623,3.34713558 117.589122,3.40052168 117.339533,3.36704944 C117.128999,3.33908529 116.617616,3.18697727 116.556287,3.1687582 C116.027817,3.12723568 115.608276,2.51837989 115.608276,1.77436405 C115.608276,1.00323147 116.05894,0.37742771 116.61426,0.37742771 Z" id="Combined-Shape" fill="#000000" transform="translate(68.067283, 29.165819) rotate(15.000000) translate(-68.067283, -29.165819) "></path>
    </g>
</svg>